<svg width="117" height="110" viewBox="0 0 117 110" fill="none" xmlns="http://www.w3.org/2000/svg">
<path d="M29.4356 37.9727C29.4356 37.9727 26.2056 34.3527 29.4356 31.1227C29.4356 31.1227 26.5456 25.3427 30.9656 25.3427C30.9656 25.3427 30.4556 20.0727 34.5356 20.9227C34.5356 20.9227 38.2756 18.0327 39.1256 22.6227C39.1256 22.6227 45.7556 20.9227 45.7556 26.0227C45.7556 26.0227 50.5156 24.6627 50.5156 27.8927C50.5156 27.8927 52.8056 29.5027 50.5156 31.8027C50.5156 31.8027 55.6156 31.4127 55.1056 34.6927C55.1056 34.6927 57.7156 36.7327 56.4656 37.9727C55.2156 39.2127 29.4356 37.9727 29.4356 37.9727Z" fill="#3DAAC7"/>
<path d="M89.3857 45.1127C89.3857 45.1127 94.4757 40.4127 89.3857 36.2227C89.3857 36.2227 93.9457 28.7327 86.9757 28.7327C86.9757 28.7327 87.7757 21.9027 81.3457 23.0027C81.3457 23.0027 75.4457 19.2527 74.1057 25.2027C74.1057 25.2027 63.6557 23.0027 63.6557 29.6127C63.6557 29.6127 56.1457 27.8527 56.1457 32.0327C56.1457 32.0327 52.5257 34.1227 56.1457 37.1027C56.1457 37.1027 48.1057 36.5927 48.9057 40.8527C48.9057 40.8527 44.7957 43.4927 46.7657 45.1127C48.7257 46.7327 89.3857 45.1127 89.3857 45.1127Z" fill="#84BBCA"/>
<path d="M47.3556 41.1428C47.3556 41.1428 46.9956 33.2928 51.3756 30.8828C51.3756 30.8828 54.5856 31.0628 58.0656 27.5828L61.5156 24.1028L65.2956 27.1328L58.0656 40.9628L47.3556 41.1428Z" fill="#008DAB"/>
<path d="M99.9 42.575H17.23V87.925H99.9V42.575Z" fill="#88D4EA"/>
<path d="M19.71 38.0249H97.48L107.58 53.7349H8L19.71 38.0249Z" fill="#ADDFEC"/>
<path d="M8.46558 53.6826L20.1756 37.9726H29.4356C29.4356 37.9726 26.2056 34.3526 29.4356 31.1226C29.4356 31.1226 26.6056 25.3426 30.9656 25.3426C30.9656 25.3426 30.1656 20.1026 34.5356 20.9226C34.5356 20.9226 38.3056 17.9726 39.1256 22.6226C39.1256 22.6226 45.7556 20.8226 45.7556 26.0226C45.7556 26.0226 54.0156 23.4026 51.3756 30.8826C51.3756 30.8826 54.6256 31.7726 61.5156 24.1026L65.2956 27.1326C65.2956 27.1326 64.6556 23.3126 74.1056 25.2026C74.1056 25.2026 74.7856 19.1526 81.3456 23.0026C81.3456 23.0026 87.5656 20.7626 86.9756 28.7326C86.9756 28.7326 93.5556 27.9926 89.3856 36.2226L90.0556 36.8426H97.7056L108.046 53.6826H100.376V87.8726H17.6956V53.9426L8.46558 53.6826Z" stroke="white" stroke-width="3" stroke-miterlimit="10"/>
</svg>
