<svg width="117" height="110" viewBox="0 0 117 110" fill="none" xmlns="http://www.w3.org/2000/svg">
<path d="M83.8388 48.0247L82.7295 62.4143L95.7053 54.1109L97.8331 29.0911L83.8388 48.0247Z" fill="#C4E2B7"/>
<path d="M75.6096 58.0069L82.684 62.4141L84.148 47.6504L75.6096 58.0069Z" fill="#AAD69F"/>
<path d="M39.6293 44.8951C39.6293 44.8951 13.5231 72.8895 10.0677 92.5714C10.0677 92.5714 8.73104 102.143 22.7525 99.3967C22.7525 99.3967 36.6558 96.7231 58.0882 77.8442C58.0882 77.8442 82.9032 51.5378 97.834 29.0729C97.834 29.0729 99.0251 19.0266 95.0151 9.52785C95.0151 9.52785 91.9416 5.16627 84.6035 11.2433L39.6293 44.8951Z" fill="#C4E2B7"/>
<path d="M39.6287 44.9587L86.1215 10.1664C86.1215 10.1664 91.5773 5.74089 95.0236 9.60063C95.0236 9.60063 96.4967 13.4147 96.924 15.5864C96.924 15.5864 78.2469 45.2325 59.0787 56.2733C59.0787 56.2733 48.6672 62.9161 41.6928 58.2899C41.6928 58.2899 36.2551 54.6673 39.6287 44.9587Z" fill="#AAD69F"/>
<path d="M96.9239 15.5862L41.6926 58.2896C41.6926 58.2896 47.4031 63.1622 59.0786 56.2731C59.0786 56.2731 73.9548 49.7581 96.9239 15.5862Z" fill="#77B877"/>
<path d="M64.998 27.1471C64.998 27.1471 77.3646 20.1484 82.1657 38.7901C82.1657 38.7901 82.9205 41.1899 84.3663 41.1899C84.3663 41.1899 87.8126 41.1899 85.312 36.2626C85.312 36.2626 77.401 8.45062 64.998 27.1471Z" fill="#7AC585"/>
<path d="M30.9991 64.4761C30.9991 64.4761 32.4449 61.1365 36.3458 61.1365C36.3458 61.1365 38.3736 61.1365 38.3736 64.0381C38.3736 64.0381 35.8457 69.3304 37.8644 70.2703C37.8644 70.2703 39.7466 72.6609 43.5748 70.2703C43.5748 70.2703 49.5035 65.2699 52.8225 65.2699C52.8225 65.2699 55.8323 64.832 57.2326 66.2372C57.2326 66.2372 57.4508 67.6606 55.5686 69.5494C55.5686 69.5494 49.6399 73.6829 46.7574 73.6829C46.7574 73.6829 40.3286 74.0479 39.2465 76.7305C39.2465 76.7305 36.2458 84.888 35.1274 86.0103C35.1274 86.0103 32.8905 90.4358 31.0082 86.0103C31.0082 86.0103 30.2171 82.8897 30.6445 80.645C30.6445 80.645 31.0082 77.4514 28.1166 78.9022C28.1166 78.9022 23.852 80.28 23.4155 77.5974C23.4155 77.5974 22.0424 75.2797 28.3985 73.0989C34.7545 70.9273 29.3351 70.3433 29.3351 70.3433C29.3351 70.3433 27.5256 69.6954 30.9991 64.4761Z" fill="#78C481"/>
<path d="M74.0183 19.2181L86.6849 9.66459C86.6849 9.66459 89.5674 7.7758 91.5952 8.02216C91.5952 8.02216 94.1231 8.03127 95.0142 9.60071C95.0142 9.60071 96.4691 13.3874 96.9146 15.5865C96.9146 15.5865 98.0695 22.0376 97.9967 25.0305L95.6962 54.1108L82.7113 62.4143L75.8187 58.0071L58.0873 77.8623C58.0873 77.8623 43.8384 90.2993 35.1364 94.2959C35.1364 94.2959 23.0335 101.751 15.3408 99.6156C15.3408 99.6156 9.30299 98.4841 10.0668 92.5804C10.0668 92.5804 11.5035 80.6362 23.2881 65.3616C23.2881 65.3616 33.5996 51.0176 39.6283 44.9679L65.2162 25.6966C65.2071 25.6875 69.1171 18.8623 74.0183 19.2181Z" stroke="white" stroke-width="3" stroke-miterlimit="10"/>
</svg>
