<svg width="724" height="256" viewBox="0 0 724 256" fill="none" xmlns="http://www.w3.org/2000/svg">
<path d="M362 254.5C461.257 254.5 551.182 240.494 616.345 217.805C648.919 206.463 675.387 192.923 693.741 177.814C712.085 162.713 722.5 145.888 722.5 128C722.5 110.112 712.085 93.2871 693.741 78.1863C675.387 63.077 648.919 49.5372 616.345 38.1951C551.182 15.506 461.257 1.5 362 1.5C262.743 1.5 172.818 15.506 107.655 38.1951C75.0809 49.5372 48.6127 63.077 30.2587 78.1863C11.9148 93.2871 1.5 110.112 1.5 128C1.5 145.888 11.9148 162.713 30.2587 177.814C48.6127 192.923 75.0809 206.463 107.655 217.805C172.818 240.494 262.743 254.5 362 254.5Z" fill="#C6FC4C" stroke="#3C8A7C" stroke-width="3"/>
</svg>
