<svg width="120" height="110" viewBox="0 0 120 110" fill="none" xmlns="http://www.w3.org/2000/svg">
<path d="M60.2 94.4C81.8496 94.4 99.4 76.8496 99.4 55.2C99.4 33.5504 81.8496 16 60.2 16C38.5504 16 21 33.5504 21 55.2C21 76.8496 38.5504 94.4 60.2 94.4Z" fill="#B893F9" stroke="white" stroke-width="3" stroke-miterlimit="10"/>
<path d="M60.2 68.9C67.7663 68.9 73.9 62.7663 73.9 55.2C73.9 47.6337 67.7663 41.5 60.2 41.5C52.6337 41.5 46.5 47.6337 46.5 55.2C46.5 62.7663 52.6337 68.9 60.2 68.9Z" fill="#D4D4FC"/>
<path d="M60.2001 64.0001C65.0603 64.0001 69.0001 60.0603 69.0001 55.2001C69.0001 50.34 65.0603 46.4001 60.2001 46.4001C55.34 46.4001 51.4001 50.34 51.4001 55.2001C51.4001 60.0603 55.34 64.0001 60.2001 64.0001Z" fill="#B893F9"/>
<path d="M60.2001 59.6001C62.6301 59.6001 64.6001 57.6301 64.6001 55.2001C64.6001 52.77 62.6301 50.8 60.2001 50.8C57.77 50.8 55.8 52.77 55.8 55.2001C55.8 57.6301 57.77 59.6001 60.2001 59.6001Z" fill="white"/>
<path d="M68.9001 44.6001L82.9001 25.1001C82.9001 25.1001 86.1001 27.5001 87.7001 29.5001L69.9001 45.6001L68.9001 44.6001Z" fill="#E1E1F9"/>
<path d="M50.2 64.6001L33 81.3001C33 81.3001 35.3 83.8001 37.1 85.0001L51.1 65.5001L50.2 64.6001Z" fill="#E1E1F9"/>
</svg>
