<svg width="117" height="110" viewBox="0 0 117 110" fill="none" xmlns="http://www.w3.org/2000/svg">
<path d="M55.6521 53.6043C55.6521 53.6043 54.8358 59.5968 53.9542 61.4809C53.9542 61.4809 52.3543 63.8556 51.4782 61.2356L49.96 57.0158C49.96 57.0158 49.998 61.6035 47.0431 63.3204C47.0431 63.3204 45.3235 64.3461 44.3222 60.5333L43.6039 55.6613L37.7649 61.1464C37.7649 61.1464 35.8874 63.1922 35.2072 60.327L35.4086 52.4226L27.7302 56.3971C27.7302 56.3971 25.1725 57.5844 25.6133 54.513C25.6133 54.513 26.0105 51.4025 27.6104 49.3121L31.1694 45.5438L25.8691 45.8783C25.8691 45.8783 23.2407 45.4769 22.4843 44.7076C22.4843 44.7076 21.7061 43.2973 23.7087 41.5637C23.7087 41.5637 26.6472 38.6316 29.6402 37.6449L30.549 37.1655L22.3319 36.2346C22.3319 36.2346 19.377 35.9001 20.9225 33.9324C20.9225 33.9324 23.0339 31.7417 25.0746 31.2901L31.953 29.0994L24.4324 25.5987C24.4324 25.5987 22.6366 24.5897 23.4964 23.3355C23.4964 23.3355 23.6706 22.6554 26.2718 22.6554C26.2718 22.6554 32.8835 22.1537 36.0507 22.4046L32.6496 11.6851C32.6496 11.6851 31.8442 9.26024 33.493 8.39064C33.493 8.39064 35.2888 7.58793 36.9649 9.29926C36.9649 9.29926 38.4233 10.665 40.4749 12.7665L44.7902 4.44397C44.7902 4.44397 45.6772 2.66576 47.4132 3.05596C47.4132 3.05596 48.9369 2.88316 48.7682 5.30801L48.8553 15.5816L53.1706 7.95584C53.1706 7.95584 54.3134 6.09399 56.4684 6.95802C56.4684 6.95802 58.4546 7.39283 58.1607 9.73406L57.2846 16.8079C57.2846 16.8079 60.2885 11.345 62.1496 10.6984C62.1496 10.6984 63.6298 9.61699 65.2405 10.0908C65.2405 10.0908 65.9589 10.219 65.2405 12.9505L64.1413 19.4056C64.1413 19.4056 66.2146 14.5057 69.0934 14.5057C69.0934 14.5057 72.0102 14.0709 71.5041 16.5404L68.2063 23.8651L74.4263 22.0032C74.4263 22.0032 76.7119 21.875 75.3569 23.7815C75.3569 23.7815 74.0889 26.5965 70.7477 27.8563C70.7477 27.8563 75.4439 27.2933 76.6302 27.9455C76.6302 27.9455 78.0288 28.2465 78.1975 29.6791C78.1975 29.6791 78.154 30.8498 76.6738 31.6302L70.4103 34.2334L76.0806 35.8778C76.0806 35.8778 77.5608 36.8311 77.0983 38.7375C77.0983 38.7375 76.2548 40.2983 74.7692 40.8613L69.311 42.2493L73.2019 43.8938C73.2019 43.8938 75.063 44.8024 73.7515 46.8426C73.7515 46.8426 71.5095 50.2207 68.0376 47.1436L68.8539 49.9587C68.8539 49.9587 69.2729 50.9286 67.4336 50.9286L65.2732 50.1203L55.6521 53.6043Z" fill="#EFD64A" stroke="white" stroke-width="3" stroke-miterlimit="10"/>
<path d="M56.3196 52.2998L78.8157 96.0906L86.6747 104.326L84.8479 93.0613L62.926 49.905" stroke="white" stroke-width="3" stroke-miterlimit="10"/>
<path d="M84.8484 93.0616L58.8659 42.4802C58.8659 42.4802 53.5708 38.8209 52.8337 45.5095L78.8163 96.0909L86.6753 104.327L84.8484 93.0616Z" fill="#FFE56C"/>
<path d="M83.3423 100.213L85.4992 99.2314L86.1323 103.136L83.3423 100.213Z" fill="#E2C61E"/>
</svg>
