<svg width="117" height="110" viewBox="0 0 117 110" fill="none" xmlns="http://www.w3.org/2000/svg">
<path d="M34.8973 96.5744H77.9628L85 39.718H29L34.8973 96.5744Z" fill="#F5A1F6" stroke="white" stroke-width="3" stroke-miterlimit="10"/>
<path d="M65.0779 20.6833C64.6814 16.3707 61.0637 13 56.7027 13C52.2425 13 48.6248 16.4699 48.2779 20.7824C37.0779 22.6165 29 27.8213 29 33.9679H84.9504C85 27.7222 76.5752 22.4182 65.0779 20.6833ZM52.8867 20.2867C53.3823 18.6509 54.9186 17.5108 56.6531 17.5108C58.4372 17.5108 59.9239 18.6509 60.4195 20.2867C59.2796 20.2372 58.1398 20.1876 56.9504 20.1876C55.6124 20.0885 54.2248 20.1876 52.8867 20.2867Z" fill="#F5A1F6" stroke="white" stroke-width="3" stroke-miterlimit="10"/>
<path d="M46.642 90.1801L42.6774 51.615C38.9606 46.8563 37.5234 52.2594 37.5234 52.2594L41.488 90.8245L46.642 90.1801Z" fill="#ED7FF6"/>
<path d="M66.3657 90.1801L70.3303 51.615C74.0471 46.8563 75.4843 52.2594 75.4843 52.2594L71.5197 90.8245L66.3657 90.1801Z" fill="#ED7FF6"/>
<path d="M54.0261 89.3373L53.7783 50.5738C56.95 45.4186 58.9818 50.6234 58.9818 50.6234L59.2296 89.3869L54.0261 89.3373Z" fill="#ED7FF6"/>
</svg>
